<svg xmlns="http://www.w3.org/2000/svg" viewBox="0 0 950 600" width="100%" height="100%">
  <defs>
    <filter id="shadow" x="-10%" y="-10%" width="120%" height="120%">
      <feDropShadow dx="0" dy="4" stdDeviation="6" flood-color="#000000" flood-opacity="0.7" />
    </filter>

    <marker id="arrow-end" viewBox="0 0 10 10" refX="9" refY="5" markerWidth="7" markerHeight="7" orient="auto">
      <path d="M 0 1 L 9 5 L 0 9 z" fill="#94a3b8" />
    </marker>

    <marker id="arrow-start" viewBox="0 0 10 10" refX="1" refY="5" markerWidth="7" markerHeight="7" orient="auto">
      <path d="M 10 1 L 1 5 L 10 9 z" fill="#94a3b8" />
    </marker>

    <marker id="arrow-end-dashed" viewBox="0 0 10 10" refX="9" refY="5" markerWidth="6" markerHeight="6" orient="auto">
      <path d="M 0 1 L 9 5 L 0 9 z" fill="#64748b" />
    </marker>
  </defs>

  <rect width="100%" height="100%" fill="#0f172a" />

  <g stroke="#94a3b8" stroke-width="2.5" fill="none" marker-start="url(#arrow-start)" marker-end="url(#arrow-end)">
    <line x1="150" y1="115" x2="230" y2="115" />
    <line x1="150" y1="255" x2="230" y2="255" />
    <line x1="150" y1="395" x2="230" y2="395" />

    <line x1="410" y1="140" x2="490" y2="140" />
    <line x1="410" y1="370" x2="490" y2="370" />

    <line x1="640" y1="115" x2="720" y2="115" />
    <line x1="640" y1="185" x2="720" y2="185" />
    <line x1="640" y1="335" x2="720" y2="335" />
    <line x1="640" y1="405" x2="720" y2="405" />
  </g>

  <g stroke="#64748b" stroke-width="2" stroke-dasharray="6,5" fill="none" marker-end="url(#arrow-end-dashed)">
    <path d="M 840 115 L 900 115 L 900 540 L 280 540 L 280 465" />
    <path d="M 840 185 L 890 185 L 890 530 L 305 530 L 305 465" />
    <path d="M 840 335 L 880 335 L 880 520 L 330 520 L 330 465" />
    <path d="M 840 405 L 870 405 L 870 510 L 355 510 L 355 465" />
  </g>

  <g font-family="system-ui, -apple-system, sans-serif" font-weight="600" font-size="14" dominant-baseline="middle">
    
    <g text-anchor="middle">
      <rect x="50" y="90" width="100" height="50" rx="8" fill="#082f49" stroke="#0ea5e9" stroke-width="2" filter="url(#shadow)" />
      <text x="100" y="117" fill="#e0f2fe">Client A</text>

      <rect x="50" y="230" width="100" height="50" rx="8" fill="#082f49" stroke="#0ea5e9" stroke-width="2" filter="url(#shadow)" />
      <text x="100" y="257" fill="#e0f2fe">Client B</text>

      <rect x="50" y="370" width="100" height="50" rx="8" fill="#082f49" stroke="#0ea5e9" stroke-width="2" filter="url(#shadow)" />
      <text x="100" y="397" fill="#e0f2fe">Client N</text>
      
      <circle cx="100" cy="310" r="3" fill="#64748b" />
      <circle cx="100" cy="325" r="3" fill="#64748b" />
      <circle cx="100" cy="340" r="3" fill="#64748b" />
    </g>

    <g>
      <rect x="230" y="70" width="180" height="390" rx="12" fill="#2e1065" stroke="#a855f7" stroke-width="2" filter="url(#shadow)" />
      <text x="320" y="420" font-size="18" fill="#e9d5ff" text-anchor="middle">Scheduler</text>

      <rect x="250" y="115" width="140" height="50" rx="6" fill="#4a044e" stroke="#d946ef" stroke-width="2" />
      <text x="320" y="142" font-size="13" fill="#fbcfe8" text-anchor="middle">Scaling Policies</text>
    </g>

    <g text-anchor="middle">
      <rect x="490" y="90" width="150" height="120" rx="8" fill="#451a03" stroke="#eab308" stroke-width="2" filter="url(#shadow)" />
      <text x="565" y="152" fill="#fef08a">Worker Manager 1</text>

      <rect x="490" y="310" width="150" height="120" rx="8" fill="#451a03" stroke="#eab308" stroke-width="2" filter="url(#shadow)" />
      <text x="565" y="372" fill="#fef08a">Worker Manager 2</text>
    </g>

    <g text-anchor="middle">
      <rect x="720" y="90" width="120" height="50" rx="6" fill="#052e16" stroke="#22c55e" stroke-width="2" filter="url(#shadow)" />
      <text x="780" y="117" fill="#bbf7d0">Worker 1</text>

      <rect x="720" y="160" width="120" height="50" rx="6" fill="#052e16" stroke="#22c55e" stroke-width="2" filter="url(#shadow)" />
      <text x="780" y="187" fill="#bbf7d0">Worker 2</text>

      <rect x="720" y="310" width="120" height="50" rx="6" fill="#052e16" stroke="#22c55e" stroke-width="2" filter="url(#shadow)" />
      <text x="780" y="337" fill="#bbf7d0">Worker 3</text>

      <rect x="720" y="380" width="120" height="50" rx="6" fill="#052e16" stroke="#22c55e" stroke-width="2" filter="url(#shadow)" />
      <text x="780" y="407" fill="#bbf7d0">Worker 4</text>
    </g>

  </g>

  <text x="580" y="575" font-family="system-ui, -apple-system, sans-serif" font-size="14" font-style="italic" fill="#94a3b8" text-anchor="middle">
    All workers connect directly to scheduler
  </text>
</svg>
