<svg xmlns="http://www.w3.org/2000/svg" viewBox="0 0 950 600" width="100%" height="100%">
  <defs>
    <filter id="shadow" x="-10%" y="-10%" width="120%" height="120%">
      <feDropShadow dx="0" dy="4" stdDeviation="6" flood-color="#000000" flood-opacity="0.7" />
    </filter>

    <marker id="arrow-end" viewBox="0 0 10 10" refX="9" refY="5" markerWidth="7" markerHeight="7" orient="auto">
      <path d="M 0 1 L 9 5 L 0 9 z" fill="#94a3b8" />
    </marker>

    <marker id="arrow-start" viewBox="0 0 10 10" refX="1" refY="5" markerWidth="7" markerHeight="7" orient="auto">
      <path d="M 10 1 L 1 5 L 10 9 z" fill="#94a3b8" />
    </marker>

    <marker id="arrow-end-dashed" viewBox="0 0 10 10" refX="9" refY="5" markerWidth="6" markerHeight="6" orient="auto">
      <path d="M 0 1 L 9 5 L 0 9 z" fill="#64748b" />
    </marker>
  </defs>

  <rect width="100%" height="100%" fill="#0f172a" />

  <g stroke="#94a3b8" stroke-width="2.5" fill="none" marker-start="url(#arrow-start)" marker-end="url(#arrow-end)">
    <line x1="150" y1="115" x2="230" y2="115" />
    <line x1="150" y1="255" x2="230" y2="255" />
    <line x1="150" y1="425" x2="230" y2="205" />

    <line x1="150" y1="145" x2="230" y2="395" />
    <line x1="150" y1="285" x2="230" y2="415" />
    <line x1="150" y1="425" x2="230" y2="425" />

    <line x1="320" y1="330" x2="320" y2="360" />

    <line x1="410" y1="130" x2="490" y2="130" />
    <line x1="410" y1="270" x2="490" y2="270" />

    <line x1="640" y1="95" x2="720" y2="95" />
    <line x1="640" y1="165" x2="720" y2="165" />
    <line x1="640" y1="235" x2="720" y2="235" />
    <line x1="640" y1="305" x2="720" y2="305" />
  </g>

  <g stroke="#64748b" stroke-width="2" stroke-dasharray="6,5" fill="none" marker-end="url(#arrow-end-dashed)">
    <path d="M 840 95 L 900 95 L 900 60 L 280 60 L 280 65" />
    <path d="M 840 165 L 890 165 L 890 50 L 305 50 L 305 65" />
    <path d="M 840 235 L 880 235 L 880 40 L 330 40 L 330 65" />
    <path d="M 840 305 L 870 305 L 870 30 L 355 30 L 355 65" />

    <path d="M 840 95 L 900 95 L 900 550 L 280 550 L 280 475" />
    <path d="M 840 165 L 890 165 L 890 540 L 305 540 L 305 475" />
    <path d="M 840 235 L 880 235 L 880 530 L 330 530 L 330 475" />
    <path d="M 840 305 L 870 305 L 870 520 L 355 520 L 355 475" />
  </g>

  <g font-family="system-ui, -apple-system, sans-serif" font-weight="600" font-size="14" dominant-baseline="middle">
    
    <g text-anchor="middle">
      <rect x="50" y="90" width="100" height="50" rx="8" fill="#082f49" stroke="#0ea5e9" stroke-width="2" filter="url(#shadow)" />
      <text x="100" y="117" fill="#e0f2fe">Client A</text>

      <rect x="50" y="230" width="100" height="50" rx="8" fill="#082f49" stroke="#0ea5e9" stroke-width="2" filter="url(#shadow)" />
      <text x="100" y="257" fill="#e0f2fe">Client B</text>

      <rect x="50" y="400" width="100" height="50" rx="8" fill="#082f49" stroke="#0ea5e9" stroke-width="2" filter="url(#shadow)" />
      <text x="100" y="427" fill="#e0f2fe">Client N</text>
      
      <circle cx="100" cy="310" r="3" fill="#64748b" />
      <circle cx="100" cy="325" r="3" fill="#64748b" />
      <circle cx="100" cy="340" r="3" fill="#64748b" />
    </g>

    <g>
      <rect x="230" y="70" width="180" height="260" rx="12" fill="#2e1065" stroke="#a855f7" stroke-width="2" filter="url(#shadow)" />
      <text x="320" y="295" font-size="18" fill="#e9d5ff" text-anchor="middle">Scheduler</text>

      <rect x="250" y="115" width="140" height="50" rx="6" fill="#4a044e" stroke="#d946ef" stroke-width="2" />
      <text x="320" y="142" font-size="13" fill="#fbcfe8" text-anchor="middle">Scaling Policies</text>

      <rect x="230" y="360" width="180" height="110" rx="12" fill="#172554" stroke="#60a5fa" stroke-width="2" filter="url(#shadow)" />
      <text x="320" y="420" font-size="18" fill="#dbeafe" text-anchor="middle">Object Storage</text>
      <text x="320" y="440" font-size="18" fill="#dbeafe" text-anchor="middle">Server</text>
    </g>

    <g text-anchor="middle">
      <rect x="490" y="70" width="150" height="120" rx="8" fill="#451a03" stroke="#eab308" stroke-width="2" filter="url(#shadow)" />
      <text x="565" y="132" fill="#fef08a">Worker Manager 1</text>

      <rect x="490" y="210" width="150" height="120" rx="8" fill="#451a03" stroke="#eab308" stroke-width="2" filter="url(#shadow)" />
      <text x="565" y="272" fill="#fef08a">Worker Manager 2</text>
    </g>

    <g text-anchor="middle">
      <rect x="720" y="70" width="120" height="50" rx="6" fill="#052e16" stroke="#22c55e" stroke-width="2" filter="url(#shadow)" />
      <text x="780" y="97" fill="#bbf7d0">Worker 1</text>

      <rect x="720" y="140" width="120" height="50" rx="6" fill="#052e16" stroke="#22c55e" stroke-width="2" filter="url(#shadow)" />
      <text x="780" y="167" fill="#bbf7d0">Worker 2</text>

      <rect x="720" y="210" width="120" height="50" rx="6" fill="#052e16" stroke="#22c55e" stroke-width="2" filter="url(#shadow)" />
      <text x="780" y="237" fill="#bbf7d0">Worker 3</text>

      <rect x="720" y="280" width="120" height="50" rx="6" fill="#052e16" stroke="#22c55e" stroke-width="2" filter="url(#shadow)" />
      <text x="780" y="307" fill="#bbf7d0">Worker 4</text>
    </g>

  </g>

  <text x="580" y="575" font-family="system-ui, -apple-system, sans-serif" font-size="14" font-style="italic" fill="#94a3b8" text-anchor="middle">
    Clients and workers connect to both scheduler and object storage server
  </text>
</svg>
