<svg xmlns="http://www.w3.org/2000/svg" viewBox="0 0 1600 1000" width="100%" height="100%" style="background-color: #11151c; font-family: -apple-system, BlinkMacSystemFont, 'Segoe UI', Roboto, Helvetica, Arial, sans-serif;">
  
  <defs>
    <marker id="arrow" viewBox="0 0 10 10" refX="9" refY="5" markerWidth="6" markerHeight="6" orient="auto-start-reverse">
      <path d="M 0 0 L 10 5 L 0 10 z" fill="#9ca3af" />
    </marker>
    <g id="user-icon">
      <path d="M12 12c2.21 0 4-1.79 4-4s-1.79-4-4-4-4 1.79-4 4 1.79 4 4 4zm0 2c-2.67 0-8 1.34-8 4v2h16v-2c0-2.66-5.33-4-8-4z" fill="#9ca3af" transform="scale(1.5)" />
    </g>
  </defs>

  <text x="800" y="60" text-anchor="middle" fill="#ffffff" font-size="28" font-weight="500">Scaler Client Usage Architecture</text>

  <text x="275" y="120" text-anchor="middle" fill="#9ca3af" font-size="14" font-weight="600" letter-spacing="1">PROGRAMMING FRAMEWORKS / APIS</text>
  
  <rect x="80" y="140" width="390" height="760" fill="none" stroke="#475569" stroke-width="2" rx="8" />

  <rect x="100" y="170" width="350" height="220" fill="#151b23" stroke="#3b82f6" stroke-width="2" rx="8" />
  <text x="275" y="210" text-anchor="middle" fill="#ffffff" font-size="18">Parfun (@parfun)</text>
  
  <g transform="translate(42.5 0)">
    <g stroke="#9ca3af" stroke-width="2">
      <line x1="160" y1="270" x2="220" y2="230" />
      <line x1="160" y1="270" x2="220" y2="256" />
      <line x1="160" y1="270" x2="220" y2="284" />
      <line x1="160" y1="270" x2="220" y2="310" />
      
      <line x1="240" y1="230" x2="300" y2="270" />
      <line x1="240" y1="256" x2="300" y2="270" />
      <line x1="240" y1="284" x2="300" y2="270" />
      <line x1="240" y1="310" x2="300" y2="270" />
    </g>
    <rect x="145" y="260" width="20" height="20" fill="#60a5fa" rx="3" />
    <rect x="220" y="220" width="20" height="20" fill="#4ade80" rx="3" />
    <rect x="220" y="246" width="20" height="20" fill="#4ade80" rx="3" />
    <rect x="220" y="274" width="20" height="20" fill="#4ade80" rx="3" />
    <rect x="220" y="300" width="20" height="20" fill="#4ade80" rx="3" />
    <rect x="300" y="260" width="20" height="20" fill="#f59e0b" rx="3" />
  </g>
  
  <text x="275" y="360" text-anchor="middle" fill="#9ca3af" font-size="13">Define functions, apply parallelism</text>
  
  <use href="#user-icon" x="20" y="260" />
  <line x1="55" y1="280" x2="90" y2="280" stroke="#9ca3af" stroke-width="2" marker-end="url(#arrow)" />


  <rect x="100" y="420" width="350" height="220" fill="#151b23" stroke="#22c55e" stroke-width="2" rx="8" />
  <text x="275" y="455" text-anchor="middle" fill="#ffffff" font-size="18">Pargraph</text>
  <text x="275" y="475" text-anchor="middle" fill="#9ca3af" font-size="14">(@graph, @delayed)</text>
  
  <g transform="translate(182, 535)">
    <path d="M 20 20 L 50 20 L 80 0 M 50 20 L 80 40 M 80 0 L 110 0 L 140 20 M 80 40 L 110 20 L 140 20 M 110 40 L 140 20 M 140 20 L 170 20" fill="none" stroke="#9ca3af" stroke-width="2" />
    <rect x="10" y="10" width="16" height="16" rx="4" fill="#60a5fa" />
    <rect x="40" y="10" width="16" height="16" rx="4" fill="#60a5fa" />
    <rect x="70" y="-10" width="16" height="16" rx="4" fill="#4ade80" />
    <rect x="100" y="-10" width="16" height="16" rx="4" fill="#4ade80" />
    <rect x="70" y="30" width="16" height="16" rx="4" fill="#4ade80" />
    <rect x="100" y="10" width="16" height="16" rx="4" fill="#4ade80" />
    <rect x="100" y="30" width="16" height="16" rx="4" fill="#4ade80" />
    <rect x="130" y="10" width="16" height="16" rx="4" fill="#f59e0b" />
    <rect x="160" y="10" width="16" height="16" rx="4" fill="#f59e0b" />
  </g>

  <text x="275" y="610" text-anchor="middle" fill="#9ca3af" font-size="13">Build task graphs with dependencies</text>
  
  <use href="#user-icon" x="20" y="515" />
  <line x1="55" y1="535" x2="90" y2="535" stroke="#9ca3af" stroke-width="2" marker-end="url(#arrow)" />


  <rect x="100" y="670" width="350" height="220" fill="#151b23" stroke="#f59e0b" stroke-width="2" rx="8" />
  <text x="275" y="710" text-anchor="middle" fill="#ffffff" font-size="18">RAY</text>
  
  <rect x="140" y="740" width="270" height="70" fill="none" stroke="#1d4ed8" stroke-width="2" rx="8" />
  <g stroke="#3b82f6" stroke-width="3">
    <line x1="190" y1="775" x2="170" y2="765" />
    <line x1="190" y1="775" x2="170" y2="785" />
    <line x1="190" y1="775" x2="215" y2="775" />
  </g>
  <circle cx="190" cy="775" r="5" fill="#3b82f6" />
  <circle cx="170" cy="765" r="4" fill="none" stroke="#3b82f6" stroke-width="2" />
  <circle cx="170" cy="785" r="4" fill="none" stroke="#3b82f6" stroke-width="2" />
  <circle cx="220" cy="775" r="5" fill="none" stroke="#3b82f6" stroke-width="2" />
  <text x="245" y="782" fill="#ffffff" font-size="22">RAY</text>

  <text x="275" y="860" text-anchor="middle" fill="#9ca3af" font-size="13">Build distributed applications.</text>
  
  <use href="#user-icon" x="20" y="760" />
  <line x1="55" y1="780" x2="90" y2="780" stroke="#9ca3af" stroke-width="2" marker-end="url(#arrow)" />


  <rect x="540" y="140" width="320" height="760" fill="#161e2e" stroke="#64748b" stroke-width="2" rx="8" />
  
  <text x="700" y="200" text-anchor="middle" fill="#ffffff" font-size="22" font-weight="500">Scaler Client</text>
  <text x="700" y="230" text-anchor="middle" fill="#ffffff" font-size="20">(Unified Execution Interface)</text>

  <rect x="585" y="330" width="230" height="50" fill="#0f172a" stroke="#334155" stroke-width="1" rx="4" />
  <text x="605" y="362" fill="#60a5fa" font-family="monospace" font-size="16">❯_ client.submit()</text>

  <rect x="585" y="450" width="230" height="50" fill="#0f172a" stroke="#334155" stroke-width="1" rx="4" />
  <text x="605" y="482" fill="#4ade80" font-family="monospace" font-size="16">❯_ client.map()</text>

  <rect x="585" y="570" width="230" height="50" fill="#0f172a" stroke="#334155" stroke-width="1" rx="4" />
  <text x="605" y="602" fill="#facc15" font-family="monospace" font-size="16">📦 client.get()</text>

  <text x="700" y="740" text-anchor="middle" fill="#9ca3af" font-size="14">Manages task submission, mapping,</text>
  <text x="700" y="760" text-anchor="middle" fill="#9ca3af" font-size="14">and result retrieval across backends.</text>


  <rect x="890" y="380" width="125" height="300" fill="#1e1b2e" stroke="#a855f7" stroke-width="2" rx="8" />
  <text x="952.5" y="500" text-anchor="middle" fill="#ffffff" font-size="18" font-weight="500">Scaler</text>
  <text x="952.5" y="525" text-anchor="middle" fill="#ffffff" font-size="18" font-weight="500">Scheduler</text>
  <text x="952.5" y="555" text-anchor="middle" fill="#9ca3af" font-size="12">Task routing</text>
  <text x="952.5" y="573" text-anchor="middle" fill="#9ca3af" font-size="12">and recovery</text>


  <text x="1290" y="112" text-anchor="middle" fill="#9ca3af" font-size="14" font-weight="600" letter-spacing="1">SUPPORTED SCALER WORKER MANAGER</text>
  <text x="1290" y="132" text-anchor="middle" fill="#9ca3af" font-size="14" font-weight="600" letter-spacing="1">(Resource Provisioning &amp; Scaling)</text>

  <rect x="1080" y="140" width="420" height="760" fill="none" stroke="#475569" stroke-width="2" rx="8" />

  <rect x="1100" y="170" width="380" height="120" fill="#151b23" stroke="#06b6d4" stroke-width="2" rx="8" />
  <g stroke="#06b6d4" fill="none" stroke-width="2">
    <rect x="1130" y="200" width="40" height="60" rx="2" />
    <line x1="1130" y1="220" x2="1170" y2="220" />
    <line x1="1130" y1="240" x2="1170" y2="240" />
    <circle cx="1140" cy="210" r="1" fill="#06b6d4" />
    <circle cx="1140" cy="230" r="1" fill="#06b6d4" />
    <circle cx="1140" cy="250" r="1" fill="#06b6d4" />
  </g>
  <text x="1200" y="225" fill="#ffffff" font-size="16">BAREMETAL</text>
  <text x="1200" y="245" fill="#ffffff" font-size="16">MACHINE</text>

  <rect x="1100" y="320" width="380" height="120" fill="#151b23" stroke="#a855f7" stroke-width="2" rx="8" />
  <g stroke="#a855f7" fill="none" stroke-width="2">
    <circle cx="1150" cy="355" r="6" />
    <line x1="1150" y1="361" x2="1150" y2="375" />
    <line x1="1135" y1="375" x2="1165" y2="375" />
    <line x1="1135" y1="375" x2="1135" y2="385" />
    <line x1="1150" y1="375" x2="1150" y2="385" />
    <line x1="1165" y1="375" x2="1165" y2="385" />
    <rect x="1130" y="385" width="10" height="10" />
    <rect x="1145" y="385" width="10" height="10" />
    <rect x="1160" y="385" width="10" height="10" />
  </g>
  <text x="1200" y="375" fill="#ffffff" font-size="16">AWS HPC</text>
  <text x="1200" y="395" fill="#ffffff" font-size="16">BATCH</text>

  <rect x="1100" y="470" width="380" height="120" fill="#151b23" stroke="#facc15" stroke-width="2" rx="8" />
  <g stroke="#facc15" fill="none" stroke-width="2">
    <rect x="1135" y="515" width="30" height="30" rx="2" />
    <rect x="1142" y="522" width="16" height="16" />
    <line x1="1130" y1="520" x2="1135" y2="520" />
    <line x1="1130" y1="530" x2="1135" y2="530" />
    <line x1="1130" y1="540" x2="1135" y2="540" />
    <line x1="1165" y1="520" x2="1170" y2="520" />
    <line x1="1165" y1="530" x2="1170" y2="530" />
    <line x1="1165" y1="540" x2="1170" y2="540" />
    <line x1="1140" y1="510" x2="1140" y2="515" />
    <line x1="1150" y1="510" x2="1150" y2="515" />
    <line x1="1160" y1="510" x2="1160" y2="515" />
    <line x1="1140" y1="545" x2="1140" y2="550" />
    <line x1="1150" y1="545" x2="1150" y2="550" />
    <line x1="1160" y1="545" x2="1160" y2="550" />
  </g>
  <text x="1200" y="505" fill="#ffffff" font-size="16">OPEN</text>
  <text x="1200" y="525" fill="#ffffff" font-size="16">RESOURCE</text>
  <text x="1200" y="545" fill="#ffffff" font-size="16">BROKER</text>
  <text x="1200" y="565" fill="#ffffff" font-size="16">AWS EC2</text>

  <rect x="1100" y="620" width="380" height="120" fill="#151b23" stroke="#3b82f6" stroke-width="2" rx="8" />
  <g fill="#3b82f6" stroke="#1e3a8a" stroke-width="1">
    <polygon points="1150,650 1165,658 1150,666 1135,658" />
    <polygon points="1135,658 1150,666 1150,682 1135,674" />
    <polygon points="1165,658 1150,666 1150,682 1165,674" />
    
    <polygon points="1135,666 1150,674 1135,682 1120,674" />
    <polygon points="1120,674 1135,682 1135,698 1120,690" />
    <polygon points="1150,674 1135,682 1135,698 1150,690" />
    
    <polygon points="1165,666 1180,674 1165,682 1150,674" />
    <polygon points="1150,674 1165,682 1165,698 1150,690" />
    <polygon points="1180,674 1165,682 1165,698 1180,690" />
  </g>
  <text x="1200" y="665" fill="#ffffff" font-size="16">IBM</text>
  <text x="1200" y="685" fill="#ffffff" font-size="16">SPECTRUM</text>
  <text x="1200" y="705" fill="#ffffff" font-size="16">SYMPHONY</text>

  <rect x="1100" y="770" width="380" height="120" fill="#151b23" stroke="#4ade80" stroke-width="2" rx="8" />
  <g stroke="#4ade80" fill="none" stroke-width="2">
    <path d="M 1135 835 Q 1125 835 1125 825 Q 1125 810 1140 810 Q 1145 795 1160 800 Q 1175 795 1175 815 Q 1185 815 1185 825 Q 1185 835 1170 835 Z" />
  </g>
  <text x="1200" y="810" fill="#ffffff" font-size="16">Oracle OCI</text>
  <text x="1200" y="830" fill="#ffffff" font-size="16">Cloud</text>
  <text x="1200" y="850" fill="#ffffff" font-size="16">Infrastructure</text>


  <g stroke="#9ca3af" stroke-width="2" fill="none" marker-end="url(#arrow)">
    <line x1="450" y1="280" x2="530" y2="280" />
    <line x1="450" y1="530" x2="530" y2="530" /> 
    <line x1="450" y1="780" x2="530" y2="780" />
  </g>

  <g stroke="#9ca3af" stroke-width="2" fill="none">
    <line x1="860" y1="530" x2="890" y2="530" marker-end="url(#arrow)" />
    <line x1="1015" y1="530" x2="1060" y2="530" />
    <line x1="1060" y1="230" x2="1060" y2="830" />
    
    <line x1="1060" y1="230" x2="1090" y2="230" marker-end="url(#arrow)" />
    <line x1="1060" y1="380" x2="1090" y2="380" marker-end="url(#arrow)" />
    <line x1="1060" y1="530" x2="1090" y2="530" marker-end="url(#arrow)" />
    <line x1="1060" y1="680" x2="1090" y2="680" marker-end="url(#arrow)" />
    <line x1="1060" y1="830" x2="1090" y2="830" marker-end="url(#arrow)" />
  </g>

</svg>
